<?xml version="1.0" standalone="no"?>
<!DOCTYPE svg PUBLIC "-//W3C//DTD SVG 20010904//EN"
 "http://www.w3.org/TR/2001/REC-SVG-20010904/DTD/svg10.dtd">
<svg version="1.0" xmlns="http://www.w3.org/2000/svg"
 width="502.000000pt" height="332.000000pt" viewBox="0 0 502.000000 332.000000"
 preserveAspectRatio="xMidYMid meet">

<g transform="translate(0.000000,332.000000) scale(0.100000,-0.100000)"
fill="#000000" stroke="none">
<path d="M2269 2938 c-23 -4 -59 -19 -79 -32 -39 -25 -80 -95 -80 -134 0 -11
-4 -24 -10 -27 -13 -8 -14 -1931 -1 -1939 4 -3 11 -23 14 -43 9 -54 49 -108
99 -131 40 -20 63 -21 348 -23 338 -2 347 -1 407 62 40 43 53 77 53 140 0 74
-40 141 -105 177 -24 14 -69 18 -223 22 l-193 5 0 275 0 275 368 5 c418 6 419
6 478 89 27 38 30 51 30 116 0 65 -3 78 -30 116 -59 83 -60 83 -478 89 -202 3
-367 8 -367 13 0 4 0 129 0 277 l0 270 185 0 c197 0 219 4 273 54 55 49 78
151 51 223 -11 30 -62 88 -94 106 -23 14 -579 26 -646 15z"/>
<path d="M435 2926 c-38 -17 -90 -72 -104 -109 -26 -69 -8 -160 43 -215 51
-57 46 -57 508 -62 l426 -5 -334 -555 c-714 -1182 -645 -1063 -651 -1129 -3
-33 -3 -75 1 -96 8 -43 68 -112 113 -132 26 -10 164 -13 709 -13 l677 0 43 25
c61 36 97 101 97 174 0 62 -17 103 -60 142 -64 61 -49 59 -563 59 -258 0 -470
2 -470 5 0 2 59 102 132 222 870 1441 848 1402 848 1509 0 71 -44 140 -112
175 -35 18 -67 19 -655 19 -495 -1 -624 -3 -648 -14z"/>
<path d="M3310 2701 l0 -238 148 -6 c166 -7 244 -23 348 -73 138 -67 234 -178
288 -334 25 -74 30 -103 34 -221 6 -170 -12 -270 -68 -385 -48 -99 -101 -160
-188 -217 -123 -81 -230 -107 -433 -107 l-129 0 0 -245 0 -245 168 0 c318 0
540 61 761 207 288 192 448 494 468 883 24 485 -200 892 -602 1093 -174 87
-375 127 -634 127 l-161 0 0 -239z"/>
</g>
</svg>
